<?xml version="1.0" standalone="no"?><!DOCTYPE svg PUBLIC "-//W3C//DTD SVG 1.1//EN" "http://www.w3.org/Graphics/SVG/1.1/DTD/svg11.dtd"><svg t="1725710548958" class="icon" viewBox="0 0 1024 1024" version="1.1" xmlns="http://www.w3.org/2000/svg" p-id="9973" xmlns:xlink="http://www.w3.org/1999/xlink" width="48" height="48"><path d="M746.666667 373.333333h-39.637334V294.101333A198.186667 198.186667 0 0 0 509.013333 96a198.186667 198.186667 0 0 0-198.101333 198.101333V373.333333h-39.68A79.445333 79.445333 0 0 0 192 452.565333v353.493334a79.445333 79.445333 0 0 0 79.232 79.274666H746.666667a79.445333 79.445333 0 0 0 79.274666-79.232v-353.536A79.445333 79.445333 0 0 0 746.666667 373.333333z m-197.802667 307.712a29.269333 29.269333 0 0 1-29.098667 29.525334 29.269333 29.269333 0 0 1-29.098666-29.525334v-118.186666c0-16.341333 13.013333-29.525333 29.098666-29.525334 7.978667 0 15.274667 3.328 20.522667 8.661334 5.290667 5.376 8.533333 12.757333 8.533333 20.906666v118.144zM386.133333 373.333333V294.101333a122.88 122.88 0 0 1 122.837334-122.837333 122.88 122.88 0 0 1 122.794666 122.794667V373.333333H386.133333z" fill="#000000" p-id="9974"></path></svg>