<?xml version="1.0" standalone="no"?><!DOCTYPE svg PUBLIC "-//W3C//DTD SVG 1.1//EN" "http://www.w3.org/Graphics/SVG/1.1/DTD/svg11.dtd"><svg t="1725638197068" class="icon" viewBox="0 0 1024 1024" version="1.1" xmlns="http://www.w3.org/2000/svg" p-id="15065" xmlns:xlink="http://www.w3.org/1999/xlink" width="200" height="200"><path d="M1024 155H0l50.7 443.9h0.3v170.5l79.2 95.7h242.4l3.3-5.1c0.1-0.2 11.5-17.6 32.8-34.7 28-22.5 59.1-33.9 92.5-33.9 42.4 0 76.6 11.2 101.5 33.2 18.6 16.4 24.9 33.1 24.9 33.2l2.6 7.4H904l70.7-99.6V588.4L1024 155zM24.9 177.2h974.2l-45.4 399.5H70.5L24.9 177.2z m927.6 581.2l-60 84.5H645.2c-4.1-7.9-12.3-21-26.7-34-20.1-18.1-56.7-39.7-117.4-39.7-38.3 0-75.3 13.6-107.1 39.3-16.8 13.6-28 27.2-33.3 34.4h-220l-67.4-81.5V598.9h879.2v159.5z" p-id="15066"></path><path d="M926.9 549.3l39.2-344.8H54.3l39.4 344.8h833.2z m14.3-322.5L907 527.1H113.5L79.2 226.8h862zM184.5 800.6c31.8 0 57.7-25.9 57.7-57.7 0-28-20.1-51.4-46.6-56.6l2.2-50c0.2-4.8-3.6-8.7-8.3-8.7h-10.1c-4.8 0-8.6 4-8.3 8.7l2.2 50c-26.5 5.2-46.6 28.6-46.6 56.6 0.1 31.8 26 57.7 57.8 57.7z m-10.1-91.8l1.6 35.6c0.2 4.6 4 8.2 8.5 8.2 4.6 0 8.3-3.6 8.5-8.2l1.6-35.6c14.6 4.4 25.3 18 25.3 34 0 19.6-15.9 35.5-35.5 35.5s-35.5-15.9-35.5-35.5c0.1-16 10.8-29.6 25.5-34zM858.3 800.6c31.8 0 57.7-25.9 57.7-57.7 0-28-20.1-51.4-46.6-56.6l2.2-50c0.2-4.8-3.6-8.7-8.3-8.7h-10.1c-4.8 0-8.6 4-8.3 8.7l2.2 50c-26.5 5.2-46.6 28.6-46.6 56.6 0.1 31.8 26 57.7 57.8 57.7z m-10.1-91.8l1.6 35.6c0.2 4.6 4 8.2 8.5 8.2 4.6 0 8.3-3.6 8.5-8.2l1.6-35.6c14.6 4.4 25.3 18 25.3 34 0 19.6-15.9 35.5-35.5 35.5s-35.5-15.9-35.5-35.5c0.1-16 10.8-29.6 25.5-34zM288.3 634.9h466v23.6h-466zM288.3 682.5h466v24.1h-466z" p-id="15067"></path><path d="M351.7 389.9H380l39.3 80.7h26.2l-41.5-84c9.4-2.2 17.8-7.3 25.1-15.3 7.3-8 10.9-19.3 10.9-33.8 0-18.9-5.5-32.5-16.4-40.9-10.9-8.4-25.1-12.5-42.5-12.5h-54.5v186.5h25.1v-80.7z m0-85.1h24c13.8 0 23.8 2.9 30 8.7 6.2 5.8 9.3 13.8 9.3 24 0 11.6-3.3 19.8-9.8 24.5-6.5 4.7-14.2 7.1-22.9 7.1h-30.5v-64.3zM527.3 472.8c15.3 0 28.4-5.8 39.3-17.5 10.9-11.6 16.7-31.3 17.5-58.9H559c0 21.8-3.3 36.5-9.8 44.2-6.5 7.6-13.8 11.5-21.8 11.5-10.9 0-19.8-5.3-26.7-15.8-6.9-10.5-10.4-28.9-10.4-55.1 0-28.4 3.4-48.5 10.4-60.5 6.9-12 16.2-18 27.8-18 10.2 0 17.8 4 22.9 12 5.1 8 7.6 20 7.6 36h24c0.7-21.8-4.2-38.7-14.7-50.7s-23.8-18-39.8-18c-18.9 0-34.4 8.4-46.4 25.1-12 16.7-18 42.2-18 76.4 0 31.3 6.2 54 18.5 68.2 12.3 14 27.3 21.1 44.7 21.1zM661.5 472.8c18.2 0 32.5-4.9 43.1-14.7 10.5-9.8 15.8-23.1 15.8-39.8 0-11.6-4.4-22-13.1-31.1-8.7-9.1-21.1-16.9-37.1-23.5-16.7-6.5-27.1-12.2-31.1-16.9-4-4.7-6-10.4-6-16.9 0-8 2.5-14.4 7.6-19.1 5.1-4.7 12-7.1 20.7-7.1 9.4 0 16.7 3.3 21.8 9.8 5.1 6.5 7.3 13.8 6.5 21.8h25.1c0-13.1-4.2-25.3-12.5-36.5-8.4-11.3-22-16.9-40.9-16.9-14.6 0-27.1 4.7-37.6 14.2-10.6 9.5-15.8 21.8-15.8 37.1 0 10.9 3.8 20.4 11.5 28.4 7.6 8 20.2 15.3 37.6 21.8 12.4 5.1 21.8 10.7 28.4 16.9 6.5 6.2 9.8 12.9 9.8 20.2 0 8.7-2.7 16.2-8.2 22.4-5.5 6.2-14 9.3-25.6 9.3-8.7 0-16.4-2.9-22.9-8.7-6.5-5.8-9.8-14.2-9.8-25.1v-6.5h-25.1v7.6c0 15.3 5.1 28 15.3 38.2 10.1 10.1 24.3 15.1 42.5 15.1z" p-id="15068"></path></svg>